<svg id="Logo" xmlns="http://www.w3.org/2000/svg" width="48" height="48" viewBox="0 0 48 48">
  <path id="Path_611" data-name="Path 611" d="M1756.072,478.465" transform="translate(-1756.071 -451.035)" fill="#0032d8"/>
  <path id="Path_612" data-name="Path 612" d="M1780.065,378.462v13.716l-12,6.857-12-6.858h0Z" transform="translate(-1756.067 -378.462)" fill="#431f5a"/>
  <path id="Path_613" data-name="Path 613" d="M1768.067,435.321l12,6.857v13.714h0l-12-6.857-12-6.857V428.463Z" transform="translate(-1756.067 -414.749)" fill="#722ed1"/>
  <path id="Path_614" data-name="Path 614" d="M1854.67,485.32v13.713l-12-6.856h0V478.463Z" transform="translate(-1818.671 -451.034)" fill="#722ed1"/>
  <path id="Path_615" data-name="Path 615" d="M1842.669,378.462v0h0v13.714h0l12,6.856v0h0l12,6.856V392.177Z" transform="translate(-1818.67 -378.462)" fill="#722ed1"/>
  <path id="Path_616" data-name="Path 616" d="M1866.668,428.463v13.716l-12,6.857-12-6.858,12-6.858Z" transform="translate(-1818.671 -414.749)" fill="#431f5a"/>
  <path id="Path_617" data-name="Path 617" d="M1854.67,485.32l-12,6.857h0V478.463Z" transform="translate(-1818.671 -451.034)" fill="#431f5a"/>
</svg>
